<svg width="20" height="20" viewBox="0 0 20 20" fill="none" xmlns="http://www.w3.org/2000/svg">
<path d="M11.3333 10.0002C11.3333 10.7366 10.7364 11.3334 10.0001 11.3334C9.26371 11.3334 8.66687 10.7366 8.66687 10.0002C8.66687 9.26383 9.26371 8.66699 10.0001 8.66699C10.7364 8.66699 11.3333 9.26383 11.3333 10.0002Z" fill="#020D1C"/>
<path d="M14.6665 6.66695C14.6665 7.40331 14.0697 8.00015 13.3333 8.00015C12.597 8.00015 12.0001 7.40331 12.0001 6.66695C12.0001 5.93058 12.597 5.33374 13.3333 5.33374C14.0697 5.33374 14.6665 5.93058 14.6665 6.66695Z" fill="#020D1C"/>
<path d="M7.99991 6.66695C7.99991 7.40331 7.40307 8.00015 6.6667 8.00015C5.93034 8.00015 5.3335 7.40331 5.3335 6.66695C5.3335 5.93058 5.93034 5.33374 6.6667 5.33374C7.40307 5.33374 7.99991 5.93058 7.99991 6.66695Z" fill="#020D1C"/>
<path d="M14.6665 13.3334C14.6665 14.0698 14.0697 14.6667 13.3333 14.6667C12.597 14.6667 12.0001 14.0698 12.0001 13.3334C12.0001 12.5971 12.597 12.0002 13.3333 12.0002C14.0697 12.0002 14.6665 12.5971 14.6665 13.3334Z" fill="#020D1C"/>
<path d="M7.99991 13.3334C7.99991 14.0698 7.40307 14.6667 6.6667 14.6667C5.93034 14.6667 5.3335 14.0698 5.3335 13.3334C5.3335 12.5971 5.93034 12.0002 6.6667 12.0002C7.40307 12.0002 7.99991 12.5971 7.99991 13.3334Z" fill="#020D1C"/>
<path d="M14.7231 0.000271026C14.3837 -0.00647178 14.0537 0.112806 13.797 0.33509C13.5403 0.557142 13.375 0.866616 13.3331 1.20354C13.2964 1.57905 13.4203 1.9527 13.6745 2.23168C13.9286 2.51047 14.2892 2.66881 14.6664 2.66695H15.9998C16.3535 2.66695 16.6925 2.80739 16.9427 3.05734C17.1926 3.30752 17.333 3.64653 17.333 4.00019V5.27691C17.3263 5.61638 17.4456 5.94631 17.6679 6.20303C17.8901 6.45976 18.1994 6.62504 18.5363 6.6669C18.912 6.70364 19.2855 6.57971 19.5645 6.32557C19.8432 6.07143 20.0016 5.71081 19.9997 5.33367V4.00023C19.9997 2.93952 19.5784 1.92203 18.8281 1.17191C18.0779 0.421619 17.0605 0.000253315 15.9997 0.000253315L14.7231 0.000271026Z" fill="#020D1C"/>
<path d="M1.46369 6.66689C1.80061 6.62504 2.10982 6.45972 2.33214 6.20302C2.55446 5.94633 2.6737 5.61639 2.66696 5.2769V4.00018C2.66696 3.64653 2.8074 3.30751 3.05735 3.05733C3.30753 2.80738 3.64653 2.66694 4.0002 2.66694H5.27691C5.61638 2.67368 5.94632 2.5544 6.20304 2.33212C6.45976 2.10984 6.62505 1.80059 6.66691 1.46367C6.70364 1.08793 6.57972 0.714511 6.32557 0.435525C6.07144 0.156741 5.71082 -0.00160268 5.33368 0.000260398H4.00023C2.93953 0.000260398 1.92203 0.421573 1.17192 1.17192C0.421627 1.92203 0.000260347 2.93947 0.000260347 4.00023V5.33368C-0.00159976 5.71081 0.156741 6.07147 0.435525 6.32557C0.714541 6.57971 1.08796 6.70364 1.46367 6.66691L1.46369 6.66689Z" fill="#020D1C"/>
<path d="M0 16.0001C0 17.0609 0.421313 18.0783 1.17166 18.8285C1.92177 19.5788 2.93921 20.0001 3.99997 20.0001H5.27669C5.61616 20.0069 5.94609 19.8876 6.20282 19.6653C6.45951 19.4433 6.62482 19.1338 6.66668 18.7969C6.70342 18.4213 6.57949 18.0477 6.32535 17.7687C6.07121 17.4899 5.71059 17.3316 5.33345 17.3334H4.00001C3.64636 17.3334 3.30733 17.193 3.05716 16.9431C2.80721 16.6929 2.66677 16.3539 2.66677 16.0002V14.7235C2.67351 14.384 2.55423 14.0541 2.33195 13.7974C2.10966 13.5406 1.80042 13.3754 1.4635 13.3335C1.08776 13.2968 0.71434 13.4207 0.435354 13.6748C0.15657 13.929 -0.00177407 14.2896 8.9009e-05 14.6667L0 16.0001Z" fill="#020D1C"/>
<path d="M14.6666 20.0001H16C17.0607 20.0001 18.0782 19.5788 18.8283 18.8285C19.5786 18.0784 20 17.0609 20 16.0002V14.6667C20.0019 14.2896 19.8435 13.9289 19.5647 13.6748C19.2857 13.4207 18.9123 13.2968 18.5366 13.3335C18.1997 13.3753 17.8905 13.5407 17.6681 13.7974C17.4458 14.0541 17.3266 14.384 17.3333 14.7235V16.0002C17.3333 16.3539 17.1929 16.6929 16.9429 16.9431C16.6927 17.193 16.3537 17.3334 16.0001 17.3334H14.7234C14.3839 17.3267 14.054 17.446 13.7972 17.6683C13.5405 17.8905 13.3752 18.1998 13.3334 18.5367C13.2966 18.9125 13.4206 19.2859 13.6747 19.5649C13.9288 19.8436 14.2895 20.002 14.6666 20.0001L14.6666 20.0001Z" fill="#020D1C"/>
</svg>
