<svg width="28" height="28" viewBox="0 0 28 28" fill="none" xmlns="http://www.w3.org/2000/svg">
<path d="M5.64827 21.3669C5.64827 19.5413 5.64827 17.7156 5.64827 15.8899C5.64827 15.8375 5.64827 15.7851 5.64827 15.7327C5.64728 15.4475 5.64728 15.447 5.37852 15.4465C4.58369 15.446 3.78886 15.4465 2.99452 15.4465C2.9364 15.4465 2.87828 15.4418 2.82065 15.447C2.69596 15.4585 2.66566 15.3894 2.66665 15.273C2.67013 14.9585 2.66764 14.644 2.66764 14.3295C2.66764 13.8315 2.66715 13.3336 2.66764 12.8356C2.66814 12.5342 2.63386 12.5305 2.94633 12.5311C3.73272 12.5321 4.51911 12.5316 5.3055 12.5316C5.35517 12.5316 5.40485 12.5332 5.45453 12.5311C5.64131 12.5238 5.64231 12.5232 5.64777 12.3182C5.64976 12.2485 5.64827 12.1783 5.64827 12.1086C5.64827 8.40485 5.64827 4.70112 5.64827 0.99738C5.64827 0.641471 5.62144 0.672921 5.95528 0.672921C8.5052 0.672397 11.0551 0.656672 13.6045 0.678687C15.454 0.694412 17.2618 1.00105 18.995 1.71286C22.0412 2.96404 24.1003 5.22109 25.1724 8.47875C25.5429 9.60522 25.7581 10.7673 25.8812 11.9513C26 13.0919 26.0149 14.2362 25.9622 15.3784C25.8783 17.2029 25.5748 18.9835 24.8921 20.6761C23.7695 23.4609 21.8549 25.3763 19.1828 26.4555C18.142 26.8759 17.0646 27.1374 15.9548 27.248C15.3368 27.3099 14.7188 27.3712 14.0973 27.3052C14.0154 27.2962 13.9319 27.3036 13.8489 27.3036C11.2166 27.3036 8.58369 27.3036 5.95129 27.3031C5.61697 27.3031 5.64876 27.3292 5.64876 26.9739C5.64777 25.1052 5.64827 23.2361 5.64827 21.3669ZM10.4128 9.05747C10.4128 10.1403 10.4123 11.2233 10.4133 12.3067C10.4133 12.5426 10.4163 12.5426 10.6289 12.5478C10.687 12.5495 10.7446 12.5478 10.8028 12.5478C12.3343 12.5478 13.8654 12.5473 15.3969 12.5484C15.6468 12.5484 15.6493 12.5505 15.6497 12.802C15.6508 13.5967 15.6508 14.3918 15.6497 15.1865C15.6493 15.4439 15.6478 15.4439 15.4049 15.4465C15.3552 15.447 15.3055 15.4465 15.2558 15.4465C13.7243 15.4465 12.1932 15.446 10.6617 15.447C10.4177 15.447 10.4143 15.4491 10.4143 15.6776C10.4133 17.8351 10.4133 19.9926 10.4143 22.1495C10.4143 22.3754 10.4183 22.3791 10.6388 22.3791C11.8802 22.3786 13.1222 22.3817 14.3636 22.3728C15.1883 22.3664 15.993 22.2124 16.7759 21.9424C17.8256 21.5808 18.7491 21 19.4963 20.133C20.2717 19.2331 20.7442 18.1663 21.0059 16.9907C21.3 15.6687 21.3333 14.331 21.215 12.984C21.1376 12.1013 20.9637 11.2432 20.6661 10.4135C20.2355 9.21155 19.5688 8.18364 18.617 7.37749C17.2434 6.21333 15.6463 5.67607 13.9076 5.6074C12.8246 5.56442 11.7392 5.59797 10.6547 5.59692C10.6214 5.59692 10.5882 5.59953 10.5554 5.59744C10.4461 5.5901 10.4088 5.6509 10.4133 5.75731C10.4158 5.81811 10.4133 5.87944 10.4133 5.94077C10.4128 6.97861 10.4128 8.018 10.4128 9.05747Z" fill="#C2A633"/>
</svg>
