<svg width="28" height="28" viewBox="0 0 28 28" fill="none" xmlns="http://www.w3.org/2000/svg">
<path d="M16.6203 23.2152V26.4051L13.962 28L11.3038 26.4051V23.3038L13.962 24.8987L16.6203 23.2152ZM2 12.4051L4.65823 14V19.4051L9.26582 22.1519V25.2532L2 21V12.4051ZM25.8354 12.4051V21L18.481 25.2532V22.1519L23.0886 19.4051V14L25.8354 12.4051ZM18.481 8.1519L21.2278 9.74684V12.8481L16.6203 15.5949V21.0886L13.962 22.6835L11.3038 21.0886V15.5949L6.51899 12.8481V9.74684L9.26582 8.1519L13.8734 10.8987L18.481 8.1519ZM6.60759 15.1519L9.26582 16.7468V19.8481L6.60759 18.2532V15.1519V15.1519ZM21.2278 15.1519V18.2532L18.5696 19.8481V16.7468L21.2278 15.1519ZM4.65823 5.40506L7.40506 7L4.65823 8.59494V11.6962L2 10.1013V7L4.65823 5.40506ZM23.1772 5.40506L25.9241 7V10.1013L23.1772 11.6962V8.59494L20.519 7L23.1772 5.40506ZM13.962 5.40506L16.6203 7L13.962 8.59494L11.3038 7L13.962 5.40506ZM13.962 0L21.2278 4.25316L18.5696 5.8481L13.962 3.10127L9.26582 5.8481L6.6962 4.25316L13.962 0Z" fill="#F3BA2F"/>
</svg>
